# xmcd CD database file
# Copyright (C) 1993-1998 Ti Kan
# 
# Track frame offsets:
#     150
#     12720
#     25560
#     37200
#     49675
#     63068
#     74470
#     88400
#     100315
#     112645
#     125308
#     137050
#     150493
#     164340
#     178195
# 
# Disc length: 2727 seconds
# 
# Revision: 1
# Processed by: cddbd v1.4b41PL1 Copyright (c) Steve Scherf et al.
# Submitted via: DiscPlay 4.0.4
# 
DISCID=c60aa50f
DTITLE=Lena Horne - Stormy Lady
DYEAR=1900
DGENRE=
TTITLE0=Whispering
TTITLE1=It's a Rainy Day
TTITLE2=Little Girl Blue
TTITLE3=Old Fashioned Love
TTITLE4=Nobody Knows the Trouble I've Seen
TTITLE5=I Don't  Want to Cry Anymore
TTITLE6=Hesitation Blues
TTITLE7=Glad to be Unhappy
TTITLE8=At Long Last Love
TTITLE9=Sometimes I Feel Like A Motherless Child
TTITLE10=Blue Prelude
TTITLE11=My Man's Gone Now
TTITLE12=More Than You Know
TTITLE13=Beale Street Blues
TTITLE14=Frankie and Johnny
EXTD=
EXTT0=
EXTT1=
EXTT2=
EXTT3=
EXTT4=
EXTT5=
EXTT6=
EXTT7=
EXTT8=
EXTT9=
EXTT10=
EXTT11=
EXTT12=
EXTT13=
EXTT14=
PLAYORDER=
